<?xml version="1.0" encoding="utf-8"?>
<!-- Svg Vector Icons : http://www.onlinewebfonts.com/icon -->
<!DOCTYPE svg PUBLIC "-//W3C//DTD SVG 1.1//EN" "http://www.w3.org/Graphics/SVG/1.1/DTD/svg11.dtd">
<svg version="1.1" xmlns="http://www.w3.org/2000/svg" xmlns:xlink="http://www.w3.org/1999/xlink" x="0px" y="0px" viewBox="0 0 1000 1000" fill="#008081" enable-background="new 0 0 1000 1000" xml:space="preserve">
<metadata> Svg Vector Icons : http://www.onlinewebfonts.com/icon </metadata>
<g><g transform="translate(0.000000,511.000000) scale(0.100000,-0.100000)"><path d="M4041.9,4903.4c-139.1-60.9-226-180.4-273.8-371.6c-34.8-141.3-167.3-273.8-308.6-312.9c-89.1-26.1-126.1-23.9-273.8,6.5c-186.9,41.3-249.9,34.8-386.8-43.5c-93.4-54.3-184.7-180.4-210.8-299.9c-8.7-34.8,0-136.9,21.7-234.7c30.4-143.4,32.6-184.7,10.9-263c-52.2-171.7-180.4-289-362.9-328.2c-121.7-26.1-258.6-130.4-310.8-234.7c-89.1-189.1-47.8-404.2,106.5-549.8c104.3-97.8,152.1-208.6,152.1-347.7c0-143.4-30.4-208.6-165.2-360.8c-117.4-132.6-139.1-182.6-139.1-326c0-210.8,128.2-367.3,352.1-434.7c315.1-93.4,428.1-291.2,354.2-610.7c-47.8-202.1-23.9-306.4,100-441.2c136.9-147.8,186.9-156.5,589-106.5c223.8,28.3,402.1-102.1,475.9-343.4c76.1-245.6,236.9-384.7,449.9-386.8c128.2,0,217.3,41.3,358.6,169.5c152.1,136.9,258.6,171.7,421.6,134.7c86.9-19.6,143.4-50,232.5-132.6c136.9-126.1,236.9-171.7,365.1-171.7c206.5,2.2,373.8,143.4,439,369.5c65.2,241.2,263,389,484.6,360.8c326-41.3,367.3-41.3,454.2,4.3c97.8,50,163,115.2,215.2,219.5c36.9,76.1,36.9,158.6-2.2,454.2c-28.3,208.6,123.9,408.6,360.8,473.8c226,65.2,367.3,232.5,369.5,439c0,128.2-45.6,228.2-171.7,365.1c-82.6,89.1-113,145.6-132.6,232.5c-36.9,163-2.2,269.5,134.7,421.6c128.2,141.3,169.5,230.4,169.5,358.6c-2.2,213-141.3,373.8-386.8,449.9c-241.2,73.9-371.6,252.1-343.4,475.9c50,402.1,41.3,452-106.5,589c-134.7,123.9-239.1,147.8-441.2,100c-319.5-73.9-517.2,39.1-610.7,354.2c-67.4,223.9-223.8,352.1-434.7,352.1c-143.4,0-199.9-23.9-323.8-139.1c-139.1-128.2-219.5-165.2-363-165.2c-141.3,0-249.9,47.8-347.7,152.1C4435.2,4918.6,4200.5,4972.9,4041.9,4903.4z M4424.4,3586.4c391.2-258.6,573.7-258.6,964.9,0c147.8,97.8,215.1,130.4,247.7,119.5c50-15.2,52.2-21.7,110.8-299.9c47.8-234.7,76.1-304.3,178.2-419.4c93.4-106.5,243.4-176,480.3-226c108.7-21.7,217.3-47.8,239.1-54.3c65.2-26.1,41.3-119.5-73.9-289c-256.5-369.5-258.6-591.1-13.1-960.6c123.9-184.7,147.8-258.6,97.8-299.9c-15.2-10.9-128.2-41.3-249.9-67.4c-256.4-50-332.5-84.8-447.7-195.6c-117.4-108.7-160.8-208.6-213-465.1c-26.1-121.7-56.5-234.7-67.4-247.8c-41.3-52.2-115.2-28.3-299.9,95.6C5009,522.1,4796,519.9,4417.8,265.6c-173.9-117.4-263-141.3-289-73.9c-6.5,19.6-32.6,130.4-56.5,243.4c-86.9,423.8-230.4,567.2-641.1,652c-280.3,58.7-286.9,60.8-302.1,110.8c-10.9,32.6,21.7,100,119.5,247.7c160.8,243.4,204.3,367.3,186.9,539c-13,141.3-58.7,236.9-215.1,469.4c-147.8,219.5-134.8,243.4,141.3,295.6c471.6,89.1,623.7,234.7,715,688.9c41.3,204.3,76.1,278.2,132.6,278.2C4217.9,3716.8,4313.5,3658.1,4424.4,3586.4z"/><path d="M4604.7,2554.1c-8.7-17.4-23.9-82.6-39.1-145.6l-23.9-113l-141.3-34.8c-169.5-39.1-182.6-69.5-89.1-215.2c36.9-56.5,67.4-110.8,67.4-121.7c0-10.9-30.4-65.2-67.4-121.7c-93.4-145.6-80.4-173.9,89.1-215.2l139.1-32.6l34.8-141.3c39.1-169.5,67.4-182.6,204.3-89.1c54.3,36.9,113,67.4,130.4,67.4c19.6,0,76.1-30.4,126.1-65.2c132.6-97.8,173.9-82.6,204.3,71.7c13,69.6,34.8,136.9,47.8,150c13,13,80.4,34.8,150,47.8c154.3,30.4,165.2,63,73.9,206.5c-37,56.5-67.4,115.2-67.4,130.4c0,15.2,30.4,69.6,67.4,123.9c93.4,134.7,80.4,165.2-84.7,204.3c-152.1,36.9-165.2,50-186.9,202.1c-19.6,121.7-58.7,147.8-147.8,95.6c-206.5-121.7-173.9-117.4-293.4-41.3C4678.6,2593.2,4622.1,2604.1,4604.7,2554.1z"/><path d="M479.9,1354.4c-6.5-21.7-17.4-78.2-26.1-126c-19.6-119.5-39.1-136.9-186.9-165.2c-71.7-15.2-134.7-39.1-141.3-56.5c-6.5-15.2,13-65.2,41.3-110.8C275.6,730.7,275.6,735.1,193,611.2c-102.1-152.1-89.1-186.9,82.6-217.3c73.9-13,141.3-34.8,150-47.8c8.7-15.2,21.7-69.5,30.4-123.9c28.2-184.7,52.2-193.4,206.5-91.3c54.3,34.8,110.8,65.2,126,65.2c15.2,0,71.7-28.2,123.9-65.2c152.1-104.3,176-91.3,217.3,106.5l23.9,121.7l132.6,32.6c195.6,47.8,202.1,63,108.7,204.3c-45.6,67.4-80.4,126.1-80.4,132.6c0,6.5,34.8,65.2,78.2,130.4c97.8,145.6,84.8,171.7-102.1,208.6c-126,23.9-128.2,26.1-150,115.2c-56.5,232.5-78.2,247.7-226,145.6c-54.3-36.9-108.7-67.4-121.7-67.4s-67.4,30.4-119.5,65.2C566.8,1400.1,497.3,1408.8,479.9,1354.4z"/><path d="M8640.5,911.1l-50-91.3l-119.5,13c-139.1,15.2-152.1-2.2-115.2-139.1l26.1-95.6l-89.1-76.1c-50-43.5-89.1-86.9-89.1-97.8c0-13,43.5-47.8,97.8-80.4l97.8-60.8l-13-119.5C8371,48.3,8373.2,44,8423.2,44c28.3,0,84.8,8.7,123.9,19.6c65.2,19.6,73.9,15.2,139.1-65.2c37-45.7,80.4-84.8,97.8-84.8c15.2,0,52.1,39.1,82.6,86.9c54.3,86.9,58.7,89.1,173.9,84.8c65.2-2.2,123.9,0,130.4,6.5c6.5,6.5,0,63-15.2,126c-26.1,110.8-23.9,115.2,28.3,152.1c28.3,21.7,71.7,54.3,93.5,71.7c50,36.9,34.8,65.2-76.1,136.9l-86.9,54.3l13,119.5c15.2,113,13,117.4-34.8,117.4c-28.3,0-84.8-8.7-123.9-19.6c-73.9-21.7-102.1-6.5-171.7,97.8C8749.1,1024.1,8699.2,1011.1,8640.5,911.1z"/><path d="M1068.9-610.2c-32.6-23.9-67.4-80.4-80.4-126.1C953.7-871,899.3-901.4,721.1-897c-84.8,2.2-169.5-4.4-193.4-17.4c-71.7-39.1-104.3-136.9-91.3-273.8c17.4-152.1-19.6-210.8-167.3-265.1c-69.5-26.1-106.5-56.5-136.9-113c-50-93.5-39.1-156.5,52.2-269.5c86.9-110.8,86.9-202.1-2.2-302.1c-34.8-41.3-71.7-110.8-78.2-152.1c-10.9-67.4-2.2-86.9,65.2-154.3c41.3-41.3,95.6-76.1,119.5-76.1c23.9,0,69.6-30.4,102.1-69.6c54.3-65.2,56.5-78.2,43.5-204.3c-13-128.2-10.9-139.1,52.2-208.6c63-69.6,67.4-71.7,223.9-65.2c184.7,6.5,223.8-19.6,289-184.7c67.4-169.5,223.8-195.6,384.7-60.8c82.6,69.6,210.8,73.9,269.5,8.7c69.5-80.4,173.9-113,263-82.6c60.8,19.6,84.8,45.7,126,136.9c73.9,167.3,115.2,195.6,265.1,180.4c228.2-23.9,326,67.4,297.7,282.5c-17.4,147.8,19.6,208.6,171.7,276c178.2,78.2,217.3,215.1,100,349.9c-93.4,104.3-106.5,219.5-36.9,304.3c117.4,139.1,132.6,230.4,58.7,321.6c-23.9,32.6-82.6,69.5-130.4,84.8c-47.8,13-106.5,50-130.4,80.4c-39.1,47.8-43.5,76.1-30.4,199.9c13,132.6,10.9,147.8-39.1,206.5c-52.2,60.9-63,63-228.2,63c-199.9,0-249.9,28.2-286.9,165.2c-47.8,171.7-221.7,223.9-354.2,106.5c-128.2-113-221.7-108.7-369.5,13C1251.4-551.5,1144.9-549.3,1068.9-610.2z M1434-1536c91.3-60.9,82.6-63,245.6,39.1c58.7,37,80.4,13.1,102.1-117.3c15.2-86.9,67.4-123.9,176-123.9c78.2,0,86.9-54.3,19.6-154.3l-56.5-89.1l56.5-86.9c71.7-106.5,58.7-143.4-50-160.8c-117.4-17.4-128.2-28.3-150-139.1c-21.7-115.2-63-132.6-156.5-67.4c-80.4,56.5-119.5,56.5-199.9,0c-93.4-65.2-134.7-47.8-156.5,67.4c-21.7,110.8-32.6,121.7-147.8,139.1c-45.6,6.5-89.1,23.9-95.6,36.9c-8.7,10.9,10.9,60.9,43.5,110.8c63,93.4,63,95.6-28.2,239.1c-19.6,32.6-30.4,65.2-21.7,71.7c6.5,6.5,60.8,23.9,117.4,39.1c100,23.9,108.7,32.6,128.2,113c23.9,93.4,47.8,141.3,71.7,141.3C1340.5-1477.3,1386.1-1503.4,1434-1536z"/><path d="M8023.3-610.2c-32.6-23.9-67.4-80.4-80.4-126.1c-34.8-134.7-89.1-165.2-265.1-160.8c-82.6,4.3-169.5-4.4-193.4-15.2c-73.9-41.3-106.5-136.9-93.5-276c17.4-152.1-19.5-210.8-167.3-265.1c-69.6-26.1-106.5-56.5-136.9-113c-50-93.5-39.1-156.5,52.2-269.5c89.1-110.8,86.9-202.1-4.3-306.4c-100-113-100-226,0-315.1c39.1-34.8,89.1-63,110.8-63c21.7,0,67.4-26.1,100-58.7c56.5-58.7,58.7-67.4,45.6-206.5c-15.2-139.1-13-147.8,50-217.3c63-69.6,67.4-71.7,223.8-67.4c184.7,6.5,215.1-10.9,273.8-147.8c91.3-206.5,228.2-239.1,399.9-95.6c82.6,69.6,210.8,73.9,269.5,8.7c69.6-78.3,173.9-113,258.6-84.8c73.9,23.9,141.3,102.1,141.3,160.8c0,17.4,26.1,63,58.7,100c56.5,67.4,63,69.6,189.1,58.7c239.1-21.7,332.5,65.2,304.3,282.5c-17.4,147.8,19.6,208.6,171.7,276c169.5,73.9,217.3,210.8,115.2,332.5c-121.7,145.6-130.4,232.5-32.6,341.2c82.6,95.6,104.3,208.6,54.3,284.7c-19.5,30.4-89.1,78.2-154.3,106.5c-147.8,67.4-169.5,108.7-152.1,284.7c15.2,136.9,13,141.3-52.2,208.6c-67.4,65.2-73.9,67.4-204.3,54.3c-173.9-17.4-263,28.3-297.7,158.7c-47.8,176-219.5,230.4-354.2,110.8c-128.2-113-221.7-108.7-369.5,13C8205.8-551.5,8099.4-549.3,8023.3-610.2z M8373.2-1509.9c97.8-67.4,106.5-67.4,206.5,2.2c104.3,69.6,141.3,56.5,158.6-56.5c17.4-113,47.8-143.4,160.8-160.8c113-17.4,126-54.3,56.5-158.7c-30.4-45.6-56.5-89.1-56.5-100c0-8.7,26.1-54.3,56.5-102.1c32.6-47.8,52.2-100,45.7-115.2c-6.5-17.4-56.5-39.1-108.7-45.6c-117.4-17.4-134.8-36.9-156.5-158.7c-15.2-100-50-126-110.8-84.7c-156.5,106.5-143.4,104.3-247.8,34.8c-71.7-47.8-102.1-56.5-123.9-39.1c-15.2,13-28.2,34.8-28.2,47.8c0,76.1-50,186.9-82.6,186.9c-67.4,0-200,45.6-200,67.4c0,13,23.9,58.7,54.3,102.1c67.4,100,67.4,115.2-2.2,221.7c-30.4,45.6-50,93.4-43.5,106.5c8.7,13,50,28.3,95.6,36.9c123.9,21.7,150,43.5,165.2,141.3C8236.3-1433.8,8251.5-1427.3,8373.2-1509.9z"/><path d="M4693.8-1505.6c-141.3-47.8-215.2-93.4-302.1-191.3c-117.4-128.2-169.5-256.5-167.3-417.3c0-186.9,549.8-2534,604.2-2573.1c108.7-80.4,117.4-56.5,421.6,1232.2C5511-2346.6,5532.7-2235.8,5524-2083.7c-8.7,184.7-60.9,299.9-193.4,426C5180.7-1512.1,4885.1-1442.5,4693.8-1505.6z"/><path d="M3183.4-2416.2c-104.3-71.7-156.5-152.1-167.3-265.1c-17.4-154.3,19.6-215.1,204.3-330.3c395.5-245.6,725.9-691.1,917.1-1236.6c71.7-197.8,95.6-232.5,147.8-213c39.1,15.2,36.9,319.5-6.5,608.5c-82.6,562.9-286.9,1008.4-589,1293.1C3485.5-2370.5,3320.3-2324.9,3183.4-2416.2z"/><path d="M6256.4-2411.8c-126.1-63-321.7-260.8-445.5-449.9c-197.8-302.1-328.2-743.3-371.6-1251.8c-23.9-269.5-21.7-302.1,10.9-334.7c54.3-54.3,86.9-10.9,167.3,217.3c184.7,530.3,506.4,960.6,917.1,1223.5c169.5,108.7,223.8,191.3,206.5,317.3c-15.2,115.2-110.8,252.1-200,291.2C6439-2357.5,6360.8-2359.6,6256.4-2411.8z"/></g></g>
</svg>